P1
12 10
000010000010
000010000010
000010000010
000010000010
000010000010
000010000010
100010100010
011100011100
000000000000
000000000000
