P1
6 20
000010
000010
000010
000010
000010
000010
100010
011100
000000
000000
000010
000010
000010
000010
000010
000010
100010
011100
000000
000000
